<?xml version="1.0" encoding="utf-8"?>
<!-- Generator: Adobe Illustrator 19.0.0, SVG Export Plug-In . SVG Version: 6.00 Build 0)  -->
<svg version="1.1" id="Ebene_1" xmlns="http://www.w3.org/2000/svg" xmlns:xlink="http://www.w3.org/1999/xlink" x="0px" y="0px"
     width="322.1px" height="278.5px" viewBox="0 0 322.1 278.5" style="enable-background:new 0 0 322.1 278.5;" xml:space="preserve"
    >
<g transform="translate(0.000000,300.000000) scale(0.100000,-0.100000)"
fill="#00008b" stroke="none">
<path d="M1480 2908 c0 -7 -9 -24 -20 -38 -11 -14 -20 -29 -20 -35 0 -5 10 5
21 23 12 18 24 30 27 28 6 -7 -40 -96 -50 -96 -3 0 -13 -3 -22 -6 -11 -4 -16
-1 -16 10 0 9 5 16 11 16 5 0 7 5 4 11 -14 22 -29 1 -30 -44 0 -43 2 -47 23
-47 22 0 23 -3 18 -42 -4 -24 -15 -189 -26 -368 -31 -499 -26 -459 -67 -503
l-35 -39 -26 23 c-15 13 -31 27 -36 31 -5 4 21 21 57 39 66 33 101 68 54 54
-78 -24 -202 -128 -270 -226 -59 -87 -114 -218 -147 -357 -7 -28 -15 -40 -22
-35 -16 9 -205 4 -232 -7 -11 -5 -18 -9 -14 -9 4 -1 -8 -23 -27 -51 -80 -119
-63 -289 37 -363 21 -16 48 -21 125 -25 54 -2 94 -1 90 4 -4 5 -46 10 -93 11
-99 3 -125 17 -156 77 -25 50 -34 146 -19 204 7 24 27 60 46 80 l33 37 107 5
c59 3 108 4 109 2 2 -1 -1 -28 -6 -60 -9 -57 -5 -280 7 -357 l7 -40 -107 5
c-59 3 -115 2 -125 -2 -10 -4 -65 -5 -122 -4 -125 4 -191 28 -243 89 -44 51
-73 123 -57 139 7 7 12 22 12 35 0 13 5 23 10 23 6 0 9 3 9 8 -5 28 4 45 49
97 25 28 64 55 72 50 6 -4 10 -2 10 3 0 12 48 23 110 26 124 7 118 6 90 17
-24 10 -136 5 -189 -8 -88 -21 -143 -80 -173 -187 l-18 -61 6 55 c6 66 45 141
91 176 71 54 91 58 343 64 l235 6 -222 2 c-205 2 -227 0 -279 -19 -192 -72
-247 -314 -104 -457 81 -82 101 -87 371 -90 l237 -3 32 -97 c54 -163 119 -272
222 -368 75 -71 204 -134 276 -134 13 0 22 -6 22 -15 0 -8 5 -15 10 -15 6 0
10 6 10 13 0 8 23 18 59 25 198 41 368 224 453 487 l33 103 250 4 c249 3 250
3 300 30 183 97 220 312 80 453 -76 75 -98 80 -375 81 l-245 1 235 -6 c259 -7
286 -13 362 -80 82 -72 108 -213 56 -302 -59 -100 -127 -136 -278 -145 -63 -5
-104 -3 -108 3 -5 6 -56 7 -137 3 -71 -3 -131 -5 -133 -4 -1 1 2 23 9 50 13
56 17 297 6 364 l-8 45 120 -5 c116 -5 121 -6 151 -35 62 -59 78 -209 31 -293
-20 -35 -20 -36 -1 -14 23 28 50 112 50 156 0 51 -20 108 -55 158 l-34 46 105
-3 c117 -4 133 -8 187 -42 22 -14 41 -23 43 -20 8 8 -42 43 -96 67 -31 14
-424 30 -479 20 -22 -5 -25 1 -50 91 -50 178 -139 331 -249 429 -52 46 -144
100 -171 100 -6 0 -11 12 -11 28 0 15 -11 189 -25 387 -14 198 -25 366 -25
373 0 6 9 12 20 12 17 0 20 7 20 45 0 33 -4 45 -15 45 -9 0 -12 -6 -9 -15 4
-9 -2 -18 -17 -24 -13 -5 -18 -10 -11 -10 6 -1 12 -4 12 -8 0 -5 -27 -8 -59
-8 l-60 0 29 28 c18 17 40 29 59 29 l29 1 -26 53 c-26 52 -42 67 -42 42z m33
-224 c-23 -47 -39 -53 -46 -17 -3 15 -9 36 -12 46 -5 12 -2 17 9 17 12 0 16
-10 16 -37 0 -28 3 -34 10 -23 5 8 10 25 10 37 0 12 6 23 13 26 19 7 19 -8 0
-49z m30 -109 l4 -100 -24 55 c-22 50 -23 59 -12 100 24 88 26 84 32 -55z
m-80 60 c15 -44 15 -47 -10 -101 -14 -30 -26 -54 -28 -52 -2 2 1 26 5 53 5 28
9 71 9 98 1 26 3 47 5 47 2 0 11 -20 19 -45z m15 -191 c-2 -2 -13 -1 -24 2
-20 5 -20 5 0 50 l21 44 3 -46 c2 -25 2 -48 0 -50z m42 50 c24 -48 23 -58 -4
-48 -9 4 -16 17 -16 34 0 16 -3 35 -6 44 -13 35 5 13 26 -30z m-4 -113 c-15
-23 -30 -41 -34 -41 -4 0 -14 15 -22 33 -7 17 -15 35 -18 40 -2 4 6 7 17 7 17
0 21 -6 21 -31 0 -17 4 -28 10 -24 6 3 10 17 10 30 0 14 7 25 18 27 26 6 26 3
-2 -41z m-62 -27 l26 -46 -36 -64 c-20 -35 -37 -64 -38 -64 -1 0 1 26 5 58 4
31 8 81 8 110 1 28 3 52 5 52 2 0 16 -21 30 -46z m105 -21 c0 -38 4 -88 7
-113 l5 -45 -36 65 -36 65 22 48 c12 26 25 47 29 47 4 0 8 -30 9 -67z m-79
-123 c0 -60 0 -60 -30 -60 -16 0 -30 2 -30 5 0 7 54 115 57 115 2 0 3 -27 3
-60z m50 3 c14 -27 26 -51 28 -55 2 -5 -10 -8 -26 -8 -29 0 -30 1 -34 55 -1
30 -1 55 3 55 3 0 16 -21 29 -47z m-50 -134 c0 -31 4 -48 10 -44 6 3 10 26 10
51 0 40 2 44 25 44 14 0 25 -2 25 -5 0 -12 -43 -90 -54 -97 -18 -13 -21 -10
-49 47 l-27 55 30 0 c29 0 30 -1 30 -51z m-5 -109 c-3 -5 0 -10 7 -12 17 -6 3
-23 -47 -57 -41 -28 -45 -29 -45 -10 0 11 10 23 24 29 40 15 44 33 6 25 -31
-7 -33 -6 -27 16 4 13 7 56 7 94 l0 70 40 -73 c22 -41 38 -77 35 -82z m103 51
c8 -80 8 -82 -12 -77 -12 3 -28 6 -37 6 -31 0 -30 32 3 96 18 34 34 61 35 60
2 -2 7 -40 11 -85z m-14 -101 c17 -6 26 -17 26 -30 l0 -21 -29 20 c-16 12 -34
21 -40 21 -6 0 -11 5 -11 10 0 13 21 13 54 0z m121 -51 c27 -15 51 -31 52 -36
2 -4 -12 -18 -31 -30 l-33 -21 -37 37 c-23 24 -36 46 -36 64 0 30 5 30 85 -14z
m-208 -86 c-3 -2 -21 -3 -40 -1 l-36 3 37 60 37 60 3 -59 c2 -32 1 -60 -1 -63z
m58 65 c17 -29 32 -56 33 -60 2 -5 -12 -8 -32 -8 -36 0 -36 0 -36 44 0 24 -3
51 -6 60 -14 36 13 12 41 -36z m-134 -19 c-16 -25 -21 -29 -21 -15 0 19 29 60
37 52 2 -2 -5 -19 -16 -37z m181 16 c6 -14 17 -25 23 -25 7 0 20 -11 29 -25
15 -23 15 -25 -4 -35 -18 -10 -20 -8 -20 21 0 22 -4 30 -14 26 -8 -3 -19 8
-29 29 -9 19 -12 34 -7 34 6 0 16 -11 22 -25z m-332 -54 c23 -16 37 -32 32
-35 -15 -9 -75 -114 -106 -186 -16 -36 -30 -67 -32 -69 -2 -2 -27 19 -56 47
l-52 50 40 60 c33 50 123 161 132 162 1 0 20 -13 42 -29z m113 -8 c-5 -29 -7
-31 -25 -22 -20 11 -20 11 3 35 12 13 23 23 25 21 1 -1 -1 -17 -3 -34z m455
-20 c27 -31 65 -81 83 -110 l32 -54 -49 -50 c-50 -50 -64 -59 -64 -36 0 20
-77 174 -106 213 l-27 35 34 29 c19 16 37 29 41 30 3 0 29 -26 56 -57z m-338
-19 c0 -14 -36 -19 -64 -8 -33 13 -17 30 24 26 26 -3 40 -9 40 -18z m100 16
c0 -13 -34 -30 -59 -30 -35 0 -24 28 12 33 17 2 35 5 40 5 4 1 7 -2 7 -8z
m-225 -49 c-20 -50 -56 -191 -61 -237 -4 -30 -9 -54 -12 -54 -5 0 -112 58
-120 65 -6 5 71 163 105 216 l36 56 29 -15 c21 -10 27 -19 23 -31z m353 -13
c38 -58 80 -144 96 -194 5 -18 -3 -26 -53 -53 l-60 -31 -11 57 c-15 78 -50
215 -60 233 -7 12 8 28 46 49 1 1 20 -27 42 -61z m-274 -53 l40 -74 -59 -61
-58 -62 6 78 c4 42 7 103 7 136 0 40 4 58 13 58 6 0 30 -34 51 -75z m170 -42
c4 -65 9 -127 12 -138 4 -12 -18 4 -57 42 l-63 62 28 48 c15 26 32 60 37 76 6
15 17 27 24 27 9 0 14 -33 19 -117z m-124 55 c0 -28 -1 -49 -3 -47 -2 2 -15
25 -30 52 l-26 47 30 0 c28 0 29 -1 29 -52z m44 1 c-14 -28 -26 -49 -28 -47
-1 1 -1 24 2 51 4 42 7 47 28 47 l24 0 -26 -51z m-178 -141 c-5 -65 -12 -118
-15 -118 -3 0 -12 4 -19 8 -10 7 -8 29 8 108 34 167 40 167 26 2z m309 -7 c15
-79 16 -94 4 -102 -8 -4 -17 -5 -20 -1 -4 4 -9 59 -12 122 -6 127 1 122 28
-19z m-523 -30 c4 -4 1 -28 -7 -55 -17 -57 -18 -66 -6 -66 5 0 14 23 21 50 7
28 15 50 19 48 56 -23 121 -66 121 -80 0 -10 5 -18 10 -18 6 0 10 7 10 15 0
18 12 19 27 4 26 -26 268 -22 336 6 12 5 17 2 17 -9 0 -9 5 -16 11 -16 6 0 8
9 4 20 -4 11 -2 20 4 20 6 0 34 14 62 31 58 34 63 31 74 -33 4 -21 11 -38 16
-38 12 0 10 26 -4 74 l-12 39 55 53 54 52 19 -42 c10 -22 32 -86 49 -141 31
-99 32 -103 32 -320 1 -238 -5 -273 -72 -447 l-26 -66 -56 51 -57 51 14 44
c16 54 16 72 3 72 -5 0 -10 -7 -10 -16 0 -9 -5 -34 -11 -55 l-12 -37 -61 34
c-33 18 -61 40 -61 48 0 8 -4 18 -8 22 -4 4 -7 -1 -7 -10 0 -15 -5 -17 -27
-11 -96 24 -171 30 -233 20 -36 -6 -75 -15 -88 -19 -17 -6 -27 -3 -37 11 -13
17 -14 16 -15 -8 0 -20 -6 -28 -23 -33 -13 -3 -40 -17 -61 -31 -20 -14 -38
-25 -40 -25 -1 0 -8 25 -15 56 -8 34 -17 52 -22 47 -5 -5 -3 -30 7 -62 l15
-52 -28 -22 c-15 -12 -41 -35 -56 -51 -15 -16 -29 -27 -31 -25 -2 2 -17 40
-34 84 -54 141 -67 228 -67 435 1 203 9 256 67 412 l32 87 50 -46 c28 -26 54
-49 58 -52z m348 -17 l0 -85 -57 6 c-32 4 -62 11 -67 15 -6 6 105 142 122 149
1 1 2 -38 2 -85z m85 9 c44 -48 56 -66 46 -72 -13 -8 -102 -24 -107 -19 -5 6
-9 158 -4 157 3 -1 32 -30 65 -66z m-110 -810 c-9 -43 -19 -85 -21 -94 -2 -8
-24 -25 -48 -36 l-43 -22 -21 102 c-11 56 -18 105 -16 108 2 3 29 11 61 17 88
17 98 18 101 10 2 -4 -4 -42 -13 -85z m155 76 c28 -6 54 -17 56 -23 3 -7 -2
-48 -11 -92 -25 -125 -19 -117 -69 -92 -43 20 -43 22 -60 102 -10 44 -19 89
-22 99 -6 21 28 23 106 6z m-101 -114 c7 -39 15 -76 19 -82 4 -6 36 -24 72
-41 l64 -29 -63 -28 c-75 -34 -89 -58 -98 -166 -5 -62 -8 -69 -27 -69 -16 0
-18 2 -7 9 12 8 12 19 2 73 -22 116 -25 120 -91 148 -33 14 -59 29 -57 34 1 4
26 18 55 30 29 12 57 27 63 33 5 5 17 49 26 97 18 97 24 95 42 -9z m-207 -2
c9 -49 19 -95 22 -103 5 -11 -3 -19 -26 -28 -36 -14 -34 -18 31 -54 35 -19 39
-33 14 -41 -10 -2 -25 -8 -33 -11 -19 -8 -73 81 -119 192 l-30 72 52 30 c29
16 57 30 62 30 6 0 18 -39 27 -87z m456 57 c28 -17 52 -32 52 -34 0 -27 -121
-266 -135 -266 -2 0 -16 5 -30 12 -36 16 -31 36 15 54 46 19 50 30 15 46 -14
6 -25 14 -25 17 0 3 9 49 20 101 11 52 20 96 20 98 0 7 20 -1 68 -28z m-578
-130 c12 -30 40 -83 61 -118 l39 -63 -28 -24 c-15 -14 -32 -25 -39 -25 -15 0
-114 117 -148 175 l-27 44 54 50 c44 41 54 47 60 33 3 -9 16 -42 28 -72z m733
12 c16 -17 17 -24 6 -44 -24 -45 -98 -144 -129 -171 l-31 -28 -32 22 c-18 13
-33 23 -35 25 -2 1 9 19 23 40 37 54 80 141 95 191 l13 42 36 -28 c20 -16 44
-38 54 -49z m-353 -237 c-23 -48 -44 -85 -46 -82 -4 4 7 59 26 127 4 15 15 26
28 28 12 2 22 8 22 14 0 6 3 9 6 5 3 -3 -13 -45 -36 -92z m-115 0 c18 -73 18
-76 -1 -94 -18 -17 -21 -17 -73 1 -30 10 -74 30 -98 44 l-45 26 33 24 33 24
40 -44 c44 -48 116 -99 86 -62 -8 11 -34 38 -57 60 -46 44 -52 60 -27 70 25
10 30 7 43 -21 22 -48 63 -115 68 -110 2 3 -12 36 -31 75 -36 71 -36 82 -6 82
14 0 22 -18 35 -75z m197 44 c19 -10 17 -15 -43 -75 -80 -81 -60 -85 23 -5
l61 60 28 -22 c16 -11 29 -22 29 -24 0 -6 -86 -48 -142 -70 -32 -12 -58 -18
-58 -12 0 6 -6 7 -12 3 -7 -5 -2 8 11 27 12 18 32 55 44 81 24 51 28 54 59 37z"/>
<path d="M1650 1850 c11 -11 25 -20 31 -20 7 0 0 9 -14 20 -14 11 -28 20 -31
20 -3 0 3 -9 14 -20z"/>
<path d="M1196 1774 c-4 -9 -4 -19 -1 -22 3 -3 5 -1 5 5 0 6 10 9 23 6 23 -6
23 -5 -4 15 -14 10 -18 10 -23 -4z"/>
<path d="M1140 1719 c-16 -18 -30 -39 -29 -48 0 -10 4 -7 10 8 5 13 15 21 23
18 8 -3 13 1 12 11 0 9 5 16 12 15 6 -2 12 4 12 12 0 21 -6 19 -40 -16z"/>
<path d="M1075 1620 c-10 -11 -14 -20 -8 -20 5 0 18 9 28 20 10 11 14 20 8 20
-5 0 -18 -9 -28 -20z"/>
<path d="M1831 1574 c0 -11 3 -14 6 -6 3 7 2 16 -1 19 -3 4 -6 -2 -5 -13z"/>
<path d="M1281 1614 c0 -11 3 -14 6 -6 3 7 2 16 -1 19 -3 4 -6 -2 -5 -13z"/>
<path d="M1010 1488 c-11 -23 -18 -44 -15 -46 7 -7 9 -4 27 46 21 54 14 54
-12 0z"/>
<path d="M978 1395 c-3 -11 -9 -29 -14 -40 -7 -19 -7 -19 10 -3 9 10 16 28 14
40 -3 22 -4 22 -10 3z"/>
<path d="M1891 1374 c0 -11 3 -14 6 -6 3 7 2 16 -1 19 -3 4 -6 -2 -5 -13z"/>
<path d="M1001 1287 c-7 -7 -11 -82 -11 -233 0 -216 1 -223 21 -238 16 -11 28
-12 48 -5 14 6 27 6 29 1 1 -4 16 -6 32 -4 20 3 30 0 30 -9 0 -7 2 -10 5 -7
14 14 -9 38 -36 38 l-29 0 0 105 c0 68 -4 105 -11 105 -7 0 -9 -35 -7 -105 l3
-105 -32 0 -33 0 0 226 0 225 31 -3 32 -3 -2 -92 c-1 -55 2 -94 8 -98 8 -4 11
26 11 94 l0 101 30 0 30 0 0 -224 c0 -139 4 -227 10 -231 8 -5 16 58 11 88 -1
5 3 6 9 2 5 -3 10 -1 10 4 0 6 -5 11 -10 11 -6 0 -9 42 -8 111 l2 111 13 -53
c8 -29 12 -58 9 -65 -2 -6 -1 -15 4 -20 4 -5 10 -33 14 -61 7 -52 3 -59 -26
-54 -13 2 -9 -70 5 -82 18 -18 53 -20 79 -5 13 7 27 11 31 10 5 -1 6 2 2 8 -4
6 -1 27 6 48 7 20 14 48 14 62 4 72 17 216 21 219 2 2 4 -70 4 -160 0 -115 4
-169 12 -177 15 -15 64 -16 73 -2 10 16 28 11 21 -6 -3 -8 -2 -13 3 -9 5 3 29
5 53 5 23 0 54 0 68 0 14 0 30 7 36 15 10 14 13 14 24 0 10 -12 36 -15 126
-14 63 1 117 6 120 11 3 5 11 4 19 -2 8 -6 29 -10 47 -8 29 3 34 7 38 38 7 49
-20 400 -33 428 -9 18 -19 22 -57 22 -57 0 -70 -12 -71 -69 0 -26 -4 -68 -8
-96 -7 -43 -8 -38 -8 43 -1 58 -5 98 -13 107 -16 19 -140 21 -158 3 -9 -9 -15
-9 -24 0 -7 7 -29 12 -49 12 -31 0 -38 -5 -48 -27 -16 -39 -23 -74 -22 -105 1
-16 -3 -28 -9 -28 -5 0 -10 10 -11 23 -1 40 -8 84 -19 111 -8 22 -16 26 -49
26 -22 0 -41 -5 -44 -12 -4 -10 -7 -10 -18 0 -16 15 -61 16 -76 1 -8 -8 -13
-8 -17 0 -10 15 -73 14 -79 -1 -3 -10 -7 -10 -18 -2 -18 15 -143 16 -158 1z
m255 -109 c8 -90 9 -95 11 -43 2 33 5 79 9 103 5 39 7 42 35 42 l30 0 -6 -57
c-28 -247 -48 -370 -62 -385 -9 -10 -29 -18 -45 -18 -24 0 -28 4 -28 30 0 19
5 30 14 30 7 0 16 10 18 23 3 18 -25 228 -47 344 -6 32 -5 33 28 33 l34 0 9
-102z m206 -3 c9 -55 17 -117 17 -137 1 -21 6 -38 11 -38 6 0 10 17 11 38 0
20 8 82 17 137 l17 100 38 3 37 3 0 -225 0 -226 -32 0 -33 0 2 112 c1 90 0
104 -7 68 -5 -25 -12 -75 -15 -112 -6 -66 -7 -68 -35 -68 -27 0 -28 1 -35 73
-14 145 -23 160 -24 40 l-1 -113 -30 0 -30 0 0 226 0 225 37 -3 38 -3 17 -100z
m328 -120 l0 -225 -30 0 -30 0 0 200 c0 127 -4 200 -10 200 -6 0 -10 -73 -10
-200 l0 -200 -30 0 -30 0 0 225 0 225 70 0 70 0 0 -225z m160 193 c0 -38 17
-289 25 -365 l5 -53 -35 0 -35 0 0 60 c0 47 -3 60 -15 60 -12 0 -15 -13 -15
-60 0 -60 0 -60 -30 -60 -17 0 -30 5 -30 13 0 6 7 106 15 222 8 116 15 211 15
213 0 1 23 2 50 2 50 0 50 0 50 -32z"/>
<path d="M1890 1097 c0 -73 3 -106 10 -102 13 8 12 176 -1 197 -5 7 -9 -31 -9
-95z"/>
<path d="M971 894 c0 -11 3 -14 6 -6 3 7 2 16 -1 19 -3 4 -6 -2 -5 -13z"/>
<path d="M1320 854 c0 -8 5 -12 10 -9 6 4 8 11 5 16 -9 14 -15 11 -15 -7z"/>
<path d="M1211 634 c0 -11 3 -14 6 -6 3 7 2 16 -1 19 -3 4 -6 -2 -5 -13z"/>
<path d="M1240 551 c0 -5 5 -13 10 -16 6 -3 10 -2 10 4 0 5 -4 13 -10 16 -5 3
-10 2 -10 -4z"/>
<path d="M1825 540 c-3 -5 -1 -10 4 -10 6 0 11 5 11 10 0 6 -2 10 -4 10 -3 0
-8 -4 -11 -10z"/>
<path d="M1297 1850 c-16 -10 -25 -20 -20 -23 5 -3 22 5 38 19 33 28 23 31
-18 4z"/>
<path d="M2416 1043 c-7 -59 -43 -143 -78 -180 -18 -19 -19 -23 -6 -23 20 0
66 53 74 86 3 13 9 22 13 20 4 -3 8 31 10 75 1 43 0 79 -2 79 -2 0 -7 -25 -11
-57z"/>
<path d="M2308 884 c-13 -13 -36 -16 -112 -15 -66 1 -96 -2 -96 -10 0 -8 28
-10 95 -7 82 3 99 7 117 26 13 12 20 22 17 22 -2 0 -12 -7 -21 -16z"/>
</g>
</svg>
